# File created by Blade
# Date/Time:  Wed Jan 21 14:55:15 2015
# Frame Rate: 120.000 fps
#------------------------------------------------------
:FULLY-SPECIFIED
:DEGREES
987
root 20.740848 35.655115 -21.481175 -178.938038 -6.395496 -179.119626
Spine -15.471664 -0.324849 -3.911047
Head 13.827746 -3.220695 3.234676
LeftShoulder -12.600543 -30.980200 17.432021
LeftArm 15.677487 5.922826 -8.068613
LeftForeArm 6.931478 -0.000000 -0.179239
LeftHand -9.600671 -0.000000 -2.773213
LeftHandThumb1 -26.253704 0.000000 33.147579
RightShoulder -12.508360 -5.461892 -4.679273
RightArm 9.461266 38.885554 12.754621
RightForeArm -34.317734 -0.000000 10.184675
RightHand -11.664893 -0.000000 2.485257
RightHandThumb1 -24.326973 -0.000000 -32.862282
LeftUpLeg 0.939308 5.367041 2.840086
LeftLeg -1.227890 -0.000000 0.000000
LeftFoot -20.226834 27.171352 -12.873144
LeftToeBase 24.651447 -0.000000 -0.000000
RightUpLeg 1.150789 -13.178681 -3.197524
RightLeg 0.928229 -0.000000 -0.000000
RightFoot -21.262730 -24.304519 20.424720
RightToeBase 22.452598 -0.000000 -0.000000
988
root 20.780823 35.654022 -21.502384 -178.768129 -6.267740 -179.063328
Spine -15.731648 -0.283145 -3.785604
Head 13.831694 -3.129291 3.124880
LeftShoulder -12.679805 -30.973348 17.394404
LeftArm 15.555787 5.945893 -7.978945
LeftForeArm 7.046474 -0.000000 -0.174486
LeftHand -9.609090 -0.000000 -2.780224
LeftHandThumb1 -26.253704 0.000000 33.147579
RightShoulder -12.516402 -5.437144 -4.726114
RightArm 9.453266 38.960742 12.706762
RightForeArm -34.367792 0.000000 10.057137
RightHand -11.640565 -0.000000 2.605141
RightHandThumb1 -24.326973 -0.000000 -32.862282
LeftUpLeg 0.850194 5.577175 2.954636
LeftLeg -1.313704 -0.000000 0.000000
LeftFoot -20.150756 27.133626 -12.839457
LeftToeBase 24.735516 -0.000000 -0.000000
RightUpLeg 1.139946 -12.954217 -3.058091
RightLeg 0.614968 -0.000000 -0.000000
RightFoot -21.140473 -24.395274 20.463769
RightToeBase 22.928996 -0.000000 -0.000000
989
root 20.818129 35.651599 -21.523148 -178.584258 -6.129873 -179.013376
Spine -15.996085 -0.205468 -3.664687
Head 13.797822 -3.154721 2.951399
LeftShoulder -12.749740 -30.938056 17.358697
LeftArm 15.456527 5.928567 -7.927385
LeftForeArm 7.111606 -0.000000 -0.210533
LeftHand -9.643704 -0.000000 -2.683511
LeftHandThumb1 -26.253704 0.000000 33.147579
RightShoulder -12.524102 -5.326768 -4.816615
RightArm 9.324030 38.937468 12.615733
RightForeArm -34.409165 -0.000000 9.952583
RightHand -11.497896 -0.000000 2.679407
RightHandThumb1 -24.326973 -0.000000 -32.862282
LeftUpLeg 0.735064 5.845727 3.058578
LeftLeg -1.372631 -0.000000 0.000000
LeftFoot -20.082298 27.043806 -12.831683
LeftToeBase 24.822551 -0.000000 -0.000000
RightUpLeg 1.100973 -12.720142 -2.924424
RightLeg 0.320997 -0.000000 -0.000000
RightFoot -21.030014 -24.511081 20.478856
RightToeBase 23.351528 -0.000000 -0.000000
990
root 20.855980 35.649280 -21.546160 -178.417365 -5.983690 -178.980526
Spine -16.250962 -0.142219 -3.576899
Head 13.792905 -3.133362 2.834774
LeftShoulder -12.813608 -30.907648 17.332035
LeftArm 15.341480 6.020458 -7.833223
LeftForeArm 7.215451 -0.000000 -0.228965
LeftHand -9.616666 -0.000000 -2.656168
LeftHandThumb1 -26.253704 0.000000 33.147579
RightShoulder -12.504569 -5.291092 -4.872793
RightArm 9.224526 38.999734 12.551254
RightForeArm -34.432590 0.000000 9.850812
RightHand -11.551356 -0.000000 2.804011
RightHandThumb1 -24.326973 -0.000000 -32.862282
LeftUpLeg 0.687394 6.084261 3.144045
LeftLeg -1.526666 -0.000000 0.000000
LeftFoot -19.952076 27.043824 -12.808827
LeftToeBase 25.054184 -0.000000 -0.000000
RightUpLeg 1.074708 -12.544918 -2.814617
RightLeg 0.039384 -0.000000 -0.000000
RightFoot -20.895512 -24.572154 20.488449
RightToeBase 23.866372 -0.000000 -0.000000
991
root 20.890158 35.646276 -21.574866 -178.265477 -5.873418 -178.967169
Spine -16.480934 -0.093516 -3.510765
Head 13.795437 -3.058399 2.771364
LeftShoulder -12.872651 -30.894919 17.330716
LeftArm 15.184618 6.128787 -7.779336
LeftForeArm 7.440469 0.000000 -0.188749
LeftHand -9.652251 -0.000000 -2.605039
LeftHandThumb1 -26.253704 0.000000 33.147579
RightShoulder -12.589621 -5.306141 -4.933856
RightArm 9.290311 39.084529 12.596028
RightForeArm -34.425022 -0.000000 9.664225
RightHand -11.536735 -0.000000 2.840680
RightHandThumb1 -24.326973 -0.000000 -32.862282
LeftUpLeg 0.658995 6.312976 3.207741
LeftLeg -1.680610 -0.000000 0.000000
LeftFoot -19.840932 27.019734 -12.826350
LeftToeBase 25.359088 -0.000000 -0.000000
RightUpLeg 1.093297 -12.484379 -2.737219
RightLeg -0.271674 -0.000000 0.000000
RightFoot -20.694382 -24.531273 20.419507
RightToeBase 24.641766 -0.000000 -0.000000
992
root 20.921936 35.642559 -21.587011 -178.089254 -5.634663 -178.943070
Spine -16.690489 0.069377 -3.412828
Head 13.735270 -3.022482 2.642974
LeftShoulder -12.946718 -30.852170 17.277116
LeftArm 15.067057 6.093152 -7.729904
LeftForeArm 7.683162 -0.000000 -0.214232
LeftHand -9.640306 -0.000000 -2.544486
LeftHandThumb1 -26.253704 0.000000 33.147579
RightShoulder -12.584404 -5.215442 -5.013231
RightArm 9.176702 39.197372 12.536393
RightForeArm -34.552492 -0.000000 9.569863
RightHand -11.441004 -0.000000 3.019138
RightHandThumb1 -24.326973 -0.000000 -32.862282
LeftUpLeg 0.589708 6.635195 3.269202
LeftLeg -1.806590 -0.000000 0.000000
LeftFoot -19.764467 27.001453 -12.890549
LeftToeBase 25.633563 -0.000000 -0.000000
RightUpLeg 1.002221 -12.144061 -2.637215
RightLeg -0.507593 -0.000000 0.000000
RightFoot -20.558720 -24.653376 20.364362
RightToeBase 25.171654 -0.000000 -0.000000
993
root 20.951366 35.638409 -21.608843 -177.950245 -5.480438 -178.928337
Spine -16.866519 0.145761 -3.330360
Head 13.661011 -3.049498 2.515486
LeftShoulder -13.034982 -30.860121 17.284924
LeftArm 14.895107 6.222411 -7.703886
LeftForeArm 7.871933 -0.000000 -0.180398
LeftHand -9.602305 -0.000000 -2.492485
LeftHandThumb1 -26.253704 0.000000 33.147579
RightShoulder -12.588777 -5.139603 -5.077349
RightArm 9.087003 39.214564 12.458086
RightForeArm -34.625556 0.000000 9.402921
RightHand -11.370499 0.000000 3.162777
RightHandThumb1 -24.326973 -0.000000 -32.862282
LeftUpLeg 0.542346 6.910149 3.334261
LeftLeg -1.889138 -0.000000 0.000000
LeftFoot -19.683324 26.897541 -12.912769
LeftToeBase 25.863790 -0.000000 -0.000000
RightUpLeg 1.002899 -11.918562 -2.556833
RightLeg -0.771744 -0.000000 0.000000
RightFoot -20.465720 -24.753106 20.327374
RightToeBase 25.152608 -0.000000 -0.000000
